<?xml version="1.0" encoding="UTF-8"?>
<svg width="391px" height="706px" viewBox="0 0 391 706" version="1.1" xmlns="http://www.w3.org/2000/svg" xmlns:xlink="http://www.w3.org/1999/xlink">
    <!-- Generator: Sketch 52.4 (67378) - http://www.bohemiancoding.com/sketch -->
    <title>Group</title>
    <desc>Created with Sketch.</desc>
    <g id="final" stroke="none" stroke-width="1" fill="none" fill-rule="evenodd">
        <g id="Group" transform="translate(195.500000, 353.000000) scale(-1, 1) rotate(90.000000) translate(-195.500000, -353.000000) translate(-157.500000, 157.500000)">
            <path d="M8.547,147.417 C8.547,163.608 21.671,176.732 37.861,176.732 L217.843,176.732 C230.851,176.732 242.623,182.003 251.148,190.527 C259.672,199.052 264.943,210.824 264.943,223.832 L264.943,390.601 C265.719,391.101 265.943,390.878 265.943,390.601 L265.943,223.832 C265.943,197.267 244.408,175.732 217.843,175.732 L37.861,175.732 C30.041,175.732 22.965,172.563 17.84,167.439 C12.715,162.313 9.547,155.238 9.547,147.417 L9.547,118.058 C8.77,117.558 8.547,117.782 8.547,118.058 L8.547,147.417 Z" id="Fill-1917" fill="#90949F"></path>
            <path d="M337.943,57.338 C337.943,64.079 335.212,70.178 330.795,74.596 C326.377,79.013 320.278,81.744 313.537,81.744 L305.036,81.744 C293.156,81.745 283.527,91.374 283.527,103.254 L283.527,117.579 C283.527,128.948 292.743,138.165 304.113,138.165 L311.052,138.165 C318.479,138.165 325.199,141.174 330.067,146.041 C334.934,150.909 337.943,157.629 337.943,165.056 L337.943,250.777 C337.943,260.241 334.109,268.803 327.908,275.006 C321.705,281.207 313.142,285.041 303.679,285.041 L14.072,285.041 C2.529,285.041 -9.564,286.041 14.072,286.041 L303.679,286.041 C323.155,286.041 338.943,270.253 338.943,250.777 L338.943,165.056 C338.943,149.652 326.456,137.165 311.052,137.165 L304.113,137.165 C298.703,137.165 293.809,134.974 290.263,131.428 C286.718,127.882 284.527,122.989 284.527,117.579 L284.527,103.254 C284.527,97.589 286.821,92.464 290.534,88.751 C294.247,85.039 299.371,82.745 305.036,82.744 L313.537,82.744 C327.569,82.744 338.943,71.37 338.943,57.338 L338.943,5.64 C338.943,5.364 338.719,5.14 338.443,5.14 C338.167,5.14 337.943,5.364 337.943,5.64 L337.943,57.338 Z" id="Fill-1918" fill="#90949F"></path>
            <path d="M580,215.228 C580,231.419 593.124,244.543 609.314,244.543 L689.296,244.543 C702.304,244.543 715.861,243.543 689.296,243.543 L609.314,243.543 C601.494,243.543 594.418,240.374 589.293,235.25 C584.168,230.124 581,223.049 581,215.228 L581,185.869 C581,185.593 580.776,185.369 580.5,185.369 C580.223,185.369 580,185.593 580,185.869 L580,215.228 Z" id="Fill-1917" fill="#90949F" transform="translate(642.274307, 214.956000) scale(1, -1) translate(-642.274307, -214.956000) "></path>
            <path d="M143.943,176.232 L143.943,193.634 C143.944,213.612 160.138,229.807 180.117,229.807 L440.658,229.807 C460.33,229.807 476.276,213.86 476.277,194.188 L476.277,157.266 C476.277,151.424 478.643,146.139 482.471,142.31 C486.301,138.482 491.585,136.116 497.427,136.115 C508.574,136.115 517.61,127.079 517.61,115.933 L517.61,36.834 C517.61,36.558 517.386,36.335 517.11,36.335 C516.834,36.335 516.61,36.558 516.61,36.834 L516.61,115.933 C516.61,121.231 514.464,126.024 510.992,129.497 C507.518,132.969 502.726,135.115 497.427,135.115 C485.194,135.116 475.277,145.032 475.277,157.266 L475.277,194.188 C475.276,203.749 471.403,212.401 465.137,218.667 C458.871,224.933 450.219,228.807 440.658,228.807 L180.117,228.807 C170.402,228.807 161.612,224.871 155.245,218.505 C148.879,212.138 144.944,203.348 144.943,193.634 L144.943,176.232 C144.943,175.956 144.719,175.732 144.443,175.732 C144.167,175.732 143.943,175.956 143.943,176.232" id="Fill-1919" fill="#90949F"></path>
            <path d="M265.443,311.14 L538.564,311.14 C561.97,311.14 580.943,292.167 580.943,268.762 L580.943,248.64 C580.943,248.364 580.719,248.14 580.443,248.14 C580.167,248.14 579.943,248.364 579.943,248.64 L579.943,268.762 C579.943,280.19 575.313,290.531 567.824,298.021 C560.334,305.51 549.992,310.14 538.564,310.14 L265.443,310.14 C265.167,310.14 264.943,310.364 264.943,310.64 C264.943,310.917 265.167,311.14 265.443,311.14" id="Fill-1921" fill="#90949F"></path>
            <path d="M120.443,285.666 C120.443,288.704316 117.981316,291.166 114.943,291.166 C111.907,291.166 109.443,288.704316 109.443,285.666 C109.443,282.63 111.907,280.166 114.943,280.166 C117.981316,280.166 120.443,282.63 120.443,285.666" id="Fill-1922" fill="#4069FE"></path>
            <path d="M271.068,285.666 C271.068,288.704316 268.606316,291.166 265.568,291.166 C262.532,291.166 260.068,288.704316 260.068,285.666 C260.068,282.63 262.532,280.166 265.568,280.166 C268.606316,280.166 271.068,282.63 271.068,285.666" id="Fill-1923" fill="#4069FE"></path>
            <path d="M271.068,310.765 C271.068,313.803316 268.606316,316.265 265.568,316.265 C262.532,316.265 260.068,313.803316 260.068,310.765 C260.068,307.729 262.532,305.265 265.568,305.265 C268.606316,305.265 271.068,307.729 271.068,310.765" id="Fill-1924" fill="#4069FE"></path>
            <path d="M271.068,229.432 C271.068,232.470316 268.606316,234.932 265.568,234.932 C262.532,234.932 260.068,232.470316 260.068,229.432 C260.068,226.393684 262.532,223.932 265.568,223.932 C268.606316,223.932 271.068,226.393684 271.068,229.432" id="Fill-1925" fill="#4069FE"></path>
            <path d="M344.068,229.432 C344.068,232.470316 341.606316,234.932 338.568,234.932 C335.532,234.932 333.068,232.470316 333.068,229.432 C333.068,226.393684 335.532,223.932 338.568,223.932 C341.606316,223.932 344.068,226.393684 344.068,229.432" id="Fill-1926" fill="#4069FE"></path>
            <path d="M150.068,176.265 C150.068,179.303316 147.606316,181.765 144.568,181.765 C141.532,181.765 139.068,179.303316 139.068,176.265 C139.068,173.229 141.532,170.765 144.568,170.765 C147.606316,170.765 150.068,173.229 150.068,176.265" id="Fill-1927" fill="#4069FE"></path>
            <path d="M14.672,118.183 C14.672,121.221316 12.208,123.683 9.172,123.683 C6.13368421,123.683 3.672,121.221316 3.672,118.183 C3.672,115.147 6.13368421,112.683 9.172,112.683 C12.208,112.683 14.672,115.147 14.672,118.183" id="Fill-1928" fill="#4069FE"></path>
            <path d="M344.068,5.765 C344.068,8.80331579 341.606316,11.265 338.568,11.265 C335.532,11.265 333.068,8.80331579 333.068,5.765 C333.068,2.729 335.532,0.265 338.568,0.265 C341.606316,0.265 344.068,2.729 344.068,5.765" id="Fill-1931" fill="#4069FE"></path>
            <path d="M522.735,37.347 C522.735,40.3853158 520.273316,42.847 517.235,42.847 C514.196684,42.847 511.735,40.3853158 511.735,37.347 C511.735,34.311 514.196684,31.847 517.235,31.847 C520.273316,31.847 522.735,34.311 522.735,37.347" id="Fill-1932" fill="#4069FE"></path>
            <path d="M705.735,185.347 C705.735,188.385316 703.273316,190.847 700.235,190.847 C697.196684,190.847 694.735,188.385316 694.735,185.347 C694.735,182.311 697.196684,179.847 700.235,179.847 C703.273316,179.847 705.735,182.311 705.735,185.347" id="Fill-1932" fill="#4069FE"></path>
            <path d="M586.068,248.765 C586.068,251.803316 583.606316,254.265 580.568,254.265 C577.532,254.265 575.068,251.803316 575.068,248.765 C575.068,245.729 577.532,243.265 580.568,243.265 C583.606316,243.265 586.068,245.729 586.068,248.765" id="Fill-1933" fill="#4069FE"></path>
            <path d="M485.165,310.496 C485.165,313.532 482.703316,315.996 479.665,315.996 C476.626684,315.996 474.165,313.532 474.165,310.496 C474.165,307.457684 476.626684,304.996 479.665,304.996 C482.703316,304.996 485.165,307.457684 485.165,310.496" id="Fill-1934" fill="#4069FE"></path>
        </g>
    </g>
</svg>